<?xml version="1.0" encoding="utf-8"?>
<!-- Generator: Adobe Illustrator 17.0.0, SVG Export Plug-In . SVG Version: 6.00 Build 0)  -->
<!DOCTYPE svg PUBLIC "-//W3C//DTD SVG 1.1//EN" "http://www.w3.org/Graphics/SVG/1.1/DTD/svg11.dtd">
<svg version="1.1" id="图层_1" xmlns="http://www.w3.org/2000/svg" xmlns:xlink="http://www.w3.org/1999/xlink" x="0px" y="0px"
	 width="128px" height="128px" viewBox="0 0 128 128" enable-background="new 0 0 128 128" xml:space="preserve">
<path fill="#FFFFFF" d="M1.584,67.48c-0.119,0.458-0.187,0.923-0.187,1.397c0,6.007,9.859,10.877,22.022,10.877
	s22.022-4.87,22.022-10.877c0-0.474-0.068-0.939-0.187-1.397H1.584z"/>
<path fill="#FFFFFF" d="M82.559,49.177c-0.119,0.458-0.187,0.923-0.187,1.397c0,6.007,9.859,10.877,22.022,10.877
	s22.022-4.87,22.022-10.877c0-0.474-0.068-0.939-0.187-1.397H82.559z"/>
<circle fill="#FFFFFF" cx="23.78" cy="36.433" r="5.235"/>
<circle fill="#FFFFFF" cx="104.78" cy="18.433" r="5.235"/>
<rect x="11.415" y="34.114" transform="matrix(0.8597 0.5107 -0.5107 0.8597 29.1053 0.6251)" fill="#FFFFFF" width="4" height="38.377"/>
<rect x="93.43" y="15.06" transform="matrix(0.8597 0.5107 -0.5107 0.8597 30.863 -43.8823)" fill="#FFFFFF" width="3.789" height="38.377"/>
<rect x="31.43" y="33.06" transform="matrix(0.8648 -0.5022 0.5022 0.8648 -21.7314 23.8006)" fill="#FFFFFF" width="3.789" height="38.377"/>
<rect x="112.43" y="15.06" transform="matrix(0.8648 -0.5022 0.5022 0.8648 -1.7382 62.0426)" fill="#FFFFFF" width="3.789" height="38.377"/>
<rect x="56" y="21" fill="#FFFFFF" width="15" height="75"/>
<rect x="41" y="95" fill="#FFFFFF" width="44" height="10"/>
<rect x="30" y="101" fill="#FFFFFF" width="66" height="15"/>
<circle fill="#FFFFFF" cx="63.213" cy="19.78" r="7.581"/>
<rect x="22.98" y="20.818" transform="matrix(0.9764 -0.2158 0.2158 0.9764 -3.498 14.5172)" fill="#FFFFFF" width="83.48" height="4.913"/>
<rect x="23.171" y="23.143" transform="matrix(0.9425 -0.3343 0.3343 0.9425 -5.9568 15.7113)" fill="#FFFFFF" width="39" height="4.041"/>
<rect x="66.171" y="13.143" transform="matrix(0.9979 -0.0648 0.0648 0.9979 -0.8025 5.5833)" fill="#FFFFFF" width="39" height="4.041"/>
<rect x="66" y="15" fill="#FFFFFF" width="15" height="6"/>
</svg>
