<?xml version="1.0" encoding="utf-8"?>
<!-- Generator: Adobe Illustrator 17.0.0, SVG Export Plug-In . SVG Version: 6.00 Build 0)  -->
<!DOCTYPE svg PUBLIC "-//W3C//DTD SVG 1.1//EN" "http://www.w3.org/Graphics/SVG/1.1/DTD/svg11.dtd">
<svg version="1.1" id="图层_1" xmlns="http://www.w3.org/2000/svg" xmlns:xlink="http://www.w3.org/1999/xlink" x="0px" y="0px"
	 width="128px" height="128px" viewBox="0 0 128 128" enable-background="new 0 0 128 128" xml:space="preserve">
<path fill="#FFFFFF" d="M36,59.242C36,61.87,33.964,64,31.164,64H5.071C2.27,64,0,61.87,0,59.242v-0.484C0,56.13,2.27,54,5.071,54
	h26.093C33.964,54,36,56.13,36,58.758V59.242z"/>
<path fill="#FFFFFF" d="M36,114.242c0,2.628-2.036,4.758-4.836,4.758H5.071C2.27,119,0,116.87,0,114.242v-0.484
	C0,111.13,2.27,109,5.071,109h26.093c2.801,0,4.836,2.13,4.836,4.758V114.242z"/>
<path fill="#FFFFFF" d="M82,13.242C82,15.87,80.2,18,77.38,18H51.106C48.286,18,46,15.87,46,13.242v-0.484
	C46,10.13,48.286,8,51.106,8H77.38C80.2,8,82,10.13,82,12.758V13.242z"/>
<path fill="#FFFFFF" d="M82,114.242c0,2.628-2.036,4.758-4.836,4.758H51.071C48.27,119,46,116.87,46,114.242v-0.484
	c0-2.628,2.27-4.758,5.071-4.758h26.093c2.801,0,4.836,2.13,4.836,4.758V114.242z"/>
<path fill="#FFFFFF" d="M128,50.242c0,2.628-2.036,4.758-4.836,4.758H97.071C94.27,55,92,52.87,92,50.242v-0.484
	C92,47.13,94.27,45,97.071,45h26.093c2.801,0,4.836,2.13,4.836,4.758V50.242z"/>
<path fill="#FFFFFF" d="M128,114.242c0,2.628-2.036,4.758-4.836,4.758H97.071C94.27,119,92,116.87,92,114.242v-0.484
	c0-2.628,2.27-4.758,5.071-4.758h26.093c2.801,0,4.836,2.13,4.836,4.758V114.242z"/>
<rect y="59" fill="#FFFFFF" width="36" height="55"/>
<rect x="46" y="13" fill="#FFFFFF" width="36" height="102"/>
<rect x="92" y="50" fill="#FFFFFF" width="36" height="64"/>
</svg>
