<?xml version="1.0" encoding="utf-8"?>
<!-- Generator: Adobe Illustrator 17.0.0, SVG Export Plug-In . SVG Version: 6.00 Build 0)  -->
<!DOCTYPE svg PUBLIC "-//W3C//DTD SVG 1.1//EN" "http://www.w3.org/Graphics/SVG/1.1/DTD/svg11.dtd">
<svg version="1.1" id="图层_1" xmlns="http://www.w3.org/2000/svg" xmlns:xlink="http://www.w3.org/1999/xlink" x="0px" y="0px"
	 width="128px" height="128px" viewBox="0 0 128 128" enable-background="new 0 0 128 128" xml:space="preserve">
<ellipse fill="none" stroke="#FFFFFF" stroke-width="5" stroke-miterlimit="10" cx="64.267" cy="64.169" rx="60.851" ry="60.96"/>
<ellipse fill="none" stroke="#FFFFFF" stroke-width="5" stroke-miterlimit="10" cx="65.64" cy="64.307" rx="35.767" ry="35.305"/>
<rect x="55" y="4" fill="#FFFFFF" width="20" height="26"/>
<rect x="55" y="99" fill="#FFFFFF" width="20" height="26"/>
<rect x="15" y="26" transform="matrix(0.5398 -0.8418 0.8418 0.5398 -21.3249 38.9932)" fill="#FFFFFF" width="20" height="26"/>
<rect x="96" y="27" transform="matrix(0.5398 0.8418 -0.8418 0.5398 82.4543 -70.8224)" fill="#FFFFFF" width="20" height="26"/>
<rect x="14" y="76" transform="matrix(-0.5398 -0.8418 0.8418 -0.5398 -37.9653 157.2445)" fill="#FFFFFF" width="20" height="26"/>
<rect x="96" y="76" transform="matrix(-0.5398 0.8418 -0.8418 -0.5398 238.1379 47.8105)" fill="#FFFFFF" width="20" height="26"/>
</svg>
